HIERARCHY
ROOT Hips
{
	OFFSET -3.958830 18.904000 13.208200
	CHANNELS 6 Xposition Yposition Zposition Zrotation Yrotation Xrotation 
	JOINT LHipJoint
	{
		OFFSET 0.000000 0.000000 0.000000
		CHANNELS 3 Zrotation Yrotation Xrotation
		JOINT LeftUpLeg
		{
			OFFSET 1.800000 -1.400000 0.085000
			CHANNELS 3 Zrotation Yrotation Xrotation
			JOINT LeftLeg
			{
				OFFSET 2.215000 -6.000000 0.000000
				CHANNELS 3 Zrotation Yrotation Xrotation
				JOINT LeftFoot
				{
					OFFSET 2.500000 -6.900000 0.000000
					CHANNELS 3 Zrotation Yrotation Xrotation
					JOINT LeftToeBase
					{
						OFFSET 0.200000 -0.500000 1.950000
						CHANNELS 3 Zrotation Yrotation Xrotation
						End Site
						{
							OFFSET 0.000000 0.000000 0.000000
						}
					}
				}
			}
		}
	}
	JOINT RHipJoint
	{
		OFFSET 0.000000 0.000000 0.000000
		CHANNELS 3 Zrotation Yrotation Xrotation
		JOINT RightUpLeg
		{
			OFFSET -1.800000 -1.400000 0.085000
			CHANNELS 3 Zrotation Yrotation Xrotation
			JOINT RightLeg
			{
				OFFSET -2.215000 -6.000000 0.000000
				CHANNELS 3 Zrotation Yrotation Xrotation
				JOINT RightFoot
				{
					OFFSET -2.500000 -6.900000 0.000000
					CHANNELS 3 Zrotation Yrotation Xrotation
					JOINT RightToeBase
					{
						OFFSET -0.200000 -0.500000 1.950000
						CHANNELS 3 Zrotation Yrotation Xrotation
						End Site
						{
							OFFSET 0.000000 0.000000 0.000000
						}
					}
				}
			}
		}
	}
	JOINT LowerBack
	{
		OFFSET 0.000000 0.000000 0.000000
		CHANNELS 3 Zrotation Yrotation Xrotation
		JOINT Spine
		{
			OFFSET -0.087000 1.940000 -0.288900
			CHANNELS 3 Zrotation Yrotation Xrotation
			JOINT Spine1
			{
				OFFSET 0.000000 1.950000 0.060000
				CHANNELS 3 Zrotation Yrotation Xrotation
				JOINT Neck
				{
					OFFSET 0.000000 0.000000 0.000000
					CHANNELS 3 Zrotation Yrotation Xrotation
					JOINT Neck1
					{
						OFFSET 0.000000 1.600000 0.340000
						CHANNELS 3 Zrotation Yrotation Xrotation
						JOINT Head
						{
							OFFSET 0.000000 1.667000 -0.240000
							CHANNELS 3 Zrotation Yrotation Xrotation
							End Site
							{
								OFFSET 0.000000 0.000000 0.000000
							}
						}
					}
				}
				JOINT LeftShoulder
				{
					OFFSET 0.000000 0.000000 0.000000
					CHANNELS 3 Zrotation Yrotation Xrotation
					JOINT LeftArm
					{
						OFFSET 2.700000 1.550000 -0.730000
						CHANNELS 3 Zrotation Yrotation Xrotation
						JOINT LeftForeArm
						{
							OFFSET 5.450000 0.000000 0.000000
							CHANNELS 3 Zrotation Yrotation Xrotation
							JOINT LeftHand
							{
								OFFSET 3.450000 0.000000 0.000000
								CHANNELS 3 Zrotation Yrotation Xrotation
								JOINT LeftHandIndex1
								{
									OFFSET 0.750000 0.000000 0.000000
									CHANNELS 3 Zrotation Yrotation Xrotation
									End Site
									{
										OFFSET 0.000000 0.000000 0.000000
									}
								}
							}
						}
					}
				}
				JOINT RightShoulder
				{
					OFFSET 0.000000 0.000000 0.000000
					CHANNELS 3 Zrotation Yrotation Xrotation
					JOINT RightArm
					{
						OFFSET -2.700000 1.550000 -0.730000
						CHANNELS 3 Zrotation Yrotation Xrotation
						JOINT RightForeArm
						{
							OFFSET -5.450000 0.000000 0.000000
							CHANNELS 3 Zrotation Yrotation Xrotation
							JOINT RightHand
							{
								OFFSET -3.450000 0.000000 0.000000
								CHANNELS 3 Zrotation Yrotation Xrotation
								JOINT RightHandIndex1
								{
									OFFSET -0.750000 0.000000 0.000000
									CHANNELS 3 Zrotation Yrotation Xrotation
									End Site
									{
										OFFSET 0.000000 0.000000 0.000000
									}
								}
							}
						}
					}
				}
			}
		}
	}
}
MOTION
Frames: 9
Frame Time: 0.016667
-0.381130 17.855060 -2.042850 -6.862236 5.375608 4.247830 -14.930683 11.451578 2.253620 6.854864 -2.923070 -22.630128 -10.036739 7.120048 18.409478 -0.690567 4.842493 3.081100 -0.116310 -0.298850 -0.393940 18.872402 -8.569979 5.561161 -16.876853 13.827415 -43.257465 20.236777 -40.326573 85.317893 -3.685048 -17.654452 -0.922537 -0.095580 0.958460 0.524640 -4.799019 -1.197379 -8.512604 20.694322 -4.288904 11.850850 -6.189192 -1.716996 2.482183 2.594693 -5.231243 -9.646645 -8.623738 2.203616 23.201101 -1.070650 -1.418400 -15.218960 -26.840235 -16.258522 4.948760 -61.645839 -4.753037 -4.320426 0.966512 -10.510502 -2.009888 -4.109443 2.684981 0.659380 0.373440 -0.001780 0.353430 20.929740 20.500774 6.643869 60.995234 11.310896 -4.711305 -2.865520 11.692537 -0.976245 2.140897 -1.119663 -0.422870 0.555960 0.419710 0.163120 
-0.368690 17.927380 -2.058600 -7.457573 5.328856 3.818100 -14.912958 11.574149 2.208924 7.231486 -2.673901 -21.464426 -9.831007 6.780272 17.059000 -0.701824 4.687405 3.123319 -0.093000 -0.286630 -0.360760 18.872954 -8.576746 5.530682 -15.318106 14.104697 -43.181808 17.771304 -40.038583 88.409878 -3.792910 -17.937133 -0.981786 -0.106650 0.900520 0.524370 -4.825784 -1.394462 -8.519734 22.141090 -4.994446 12.656368 -6.861023 -2.054012 2.648426 2.742923 -5.686608 -9.958354 -9.854264 2.389840 24.840375 -0.700180 -1.616040 -16.289370 -26.131529 -16.977413 5.022890 -61.256276 -6.168930 -3.886899 -0.387259 -11.301858 -1.987296 -4.044121 2.700240 0.702760 0.318380 0.040520 0.338490 19.915538 21.159672 7.048413 61.375632 11.424803 -5.123132 -2.771939 12.822223 -1.043685 2.144362 -1.093608 -0.402650 0.542550 0.412030 0.149990 
-0.358550 18.030350 -2.092270 -8.198324 6.166939 4.115565 -14.889333 11.578244 2.111363 7.052991 -2.424257 -19.996371 -8.841696 5.683516 13.177690 -0.845901 4.292103 3.294725 -0.124970 -0.351270 -0.376240 18.907476 -8.570149 5.536321 -13.389258 14.453142 -44.187484 15.135043 -40.199551 92.367186 -3.917228 -18.448349 -1.083307 -0.113450 0.937860 0.525710 -4.909319 -1.394372 -8.464000 24.010226 -5.658791 12.552568 -7.681710 -2.429422 3.064783 2.825894 -5.874680 -9.807678 -10.334785 2.472410 25.266298 -0.539090 -1.998440 -16.530010 -24.607990 -16.601539 4.788126 -61.118148 -7.784442 -3.997639 -2.541293 -14.945309 -2.187981 -4.065048 2.668107 0.745220 0.330890 0.016220 0.316480 18.189058 20.392896 6.941423 61.767758 11.716718 -5.281073 -2.369340 13.999860 -1.126375 2.094818 -1.044527 -0.453010 0.586190 0.474450 0.124220 
-0.349440 18.115270 -2.092210 -8.920139 6.715569 5.175330 -14.871199 11.464179 2.041959 7.026452 -2.267189 -19.153228 -8.113710 4.914756 9.907046 -0.896415 4.044800 3.442355 -0.153180 -0.365730 -0.392560 18.963538 -8.609546 5.485999 -10.876605 14.970960 -45.781876 11.392128 -38.704442 96.239640 -3.938601 -18.762623 -1.122543 -0.088190 1.015920 0.516070 -5.011711 -1.131912 -8.341104 25.838593 -5.791765 10.922298 -8.235743 -2.688957 3.751673 2.948759 -5.499981 -9.268940 -9.392872 2.377331 24.058108 -2.015120 -1.582850 -13.960280 -22.713984 -14.877808 4.360266 -61.602705 -9.064258 -4.497489 -4.987821 -20.375057 -2.183257 -4.138217 2.658641 0.668650 0.420500 -0.047450 0.328820 16.042280 17.913735 6.322789 62.370657 11.607266 -5.504348 -1.187819 16.378323 -1.391526 2.056336 -1.069851 -0.486330 0.617560 0.476660 0.132950 
-0.370430 18.182130 -2.085570 -9.141416 6.413763 6.369376 -14.883578 11.372955 2.026250 7.407429 -2.206232 -18.270714 -8.236054 4.600449 7.771798 -0.906048 4.010738 3.472874 -0.148050 -0.360770 -0.350860 18.986880 -8.577882 5.490831 -8.696268 15.706210 -47.874200 7.788099 -36.508799 99.485990 -3.929344 -18.857860 -1.141508 -0.073340 1.018230 0.539490 -5.017304 -0.988453 -8.314264 26.269339 -5.513774 10.076868 -8.517919 -2.620006 3.739993 3.249229 -4.568201 -8.566862 -7.542002 2.059736 23.080515 -4.400650 -0.323720 -12.570750 -21.131254 -11.763434 3.652194 -60.957487 -9.273310 -5.392472 -9.554025 -27.791004 -1.366824 -4.181771 2.704166 0.629260 0.478640 -0.062820 0.322160 13.842889 13.879486 5.318227 63.976726 10.936558 -6.252281 1.133781 20.009983 -1.523107 2.022519 -1.111132 -0.488670 0.583930 0.455110 0.111400 
-0.380140 18.251610 -2.118460 -9.071022 6.988262 6.601972 -14.890969 11.441270 1.972767 7.188794 -2.123417 -17.528425 -7.650386 4.553967 7.879048 -0.906108 4.027935 3.481196 -0.216580 -0.449420 -0.384320 18.980827 -8.545144 5.553161 -8.159447 15.544298 -49.254734 7.576989 -36.547535 99.577042 -3.916489 -18.933212 -1.151858 -0.122620 1.047690 0.554280 -4.997279 -1.099126 -8.347251 26.399386 -5.740936 10.395370 -8.549659 -2.785361 4.176724 3.412907 -3.926002 -8.797130 -6.722682 1.657166 24.304939 -5.520720 0.057870 -10.676220 -19.741746 -11.275950 3.850152 -59.830288 -9.727229 -6.132187 -14.024287 -35.465554 0.072736 -4.208032 2.757112 0.616660 0.519890 -0.091250 0.300030 12.144339 12.702264 5.396312 63.658297 10.224263 -7.171667 3.158647 23.468923 -1.356591 1.983461 -1.106675 -0.504210 0.567480 0.496960 0.099810 
-0.388400 18.292880 -2.153660 -8.749007 7.465811 7.029349 -14.908384 11.542990 1.876921 6.688105 -2.142224 -17.600185 -6.817952 4.784596 10.179694 -0.913267 4.060369 3.459341 -0.203360 -0.438560 -0.357250 18.972926 -8.510820 5.636705 -7.819249 15.323541 -51.147681 7.343333 -36.188674 99.246005 -3.894320 -18.869444 -1.151845 -0.115840 1.038660 0.558180 -4.960713 -1.238276 -8.331933 26.046671 -6.169604 10.945954 -8.208459 -3.234627 4.318315 3.230740 -3.549309 -8.384526 -6.198891 1.547793 24.688236 -5.428070 0.240760 -10.700790 -18.124211 -8.832421 3.358170 -59.099635 -10.197687 -6.062337 -19.106386 -42.961177 2.604807 -4.205216 2.828750 0.613970 0.518680 -0.085460 0.292150 10.933364 9.641776 4.682779 62.669219 9.569828 -7.687132 6.785260 27.072835 -0.677045 1.967029 -1.119167 -0.499090 0.564800 0.490830 0.091830 
-0.399750 18.322450 -2.183780 -8.712183 7.261993 6.640448 -14.915012 11.720176 1.767817 6.800198 -1.924823 -16.209481 -5.902884 4.991824 12.057499 -0.947488 4.197604 3.386922 -0.169290 -0.440540 -0.292430 18.956636 -8.506978 5.723375 -7.151559 15.535824 -52.137561 8.295974 -35.339585 96.771917 -3.819464 -18.466214 -1.104137 -0.118060 0.980850 0.564580 -4.929068 -1.392368 -8.357731 25.963055 -6.677297 12.629847 -8.156201 -3.485298 4.407086 3.233939 -3.377841 -8.101845 -6.165245 1.221449 26.004565 -5.261480 0.137560 -12.605220 -17.492559 -6.869116 2.996337 -57.398320 -10.132778 -5.749549 -26.870365 -51.762384 7.474967 -4.156635 2.914581 0.696260 0.463520 -0.045590 0.264460 10.307213 7.380251 4.184758 60.981629 9.054394 -8.058804 10.387613 30.411024 0.402122 1.940933 -1.105890 -0.508170 0.562030 0.496490 0.047080 
-0.417690 18.319460 -2.234170 -8.299181 7.528077 6.393312 -14.930443 11.844562 1.631871 6.635242 -1.816474 -15.002887 -5.129745 5.497626 15.591144 -0.924061 4.485419 3.273509 -0.161940 -0.418850 -0.271660 18.946427 -8.442464 5.891350 -7.969645 15.353514 -54.328847 11.225145 -35.616592 92.540049 -3.718607 -18.076451 -1.032950 -0.101490 0.965010 0.549200 -4.893254 -1.519953 -8.395146 25.130435 -6.964104 13.886973 -7.851398 -3.712637 5.165146 3.168648 -2.639774 -7.945636 -5.213529 0.442204 27.315769 -5.612210 0.212800 -13.005750 -16.669127 -5.935979 2.869915 -54.757836 -11.108272 -4.205957 -37.575318 -60.933659 16.041481 -4.159919 2.995209 0.708300 0.459710 -0.030370 0.256600 9.705396 5.632041 3.880209 59.178033 8.366983 -8.454421 14.242292 34.805157 1.814596 1.902047 -1.131345 -0.518750 0.582150 0.488880 0.034460 
